<svg width="40" height="40" viewBox="0 0 40 40" fill="none" xmlns="http://www.w3.org/2000/svg">
<ellipse cx="19.5555" cy="20" rx="19.5555" ry="20" fill="white"/>
<path d="M20.0555 31.1137C25.9865 31.1137 29.9263 26.8559 29.9263 20.8462C29.9263 20.158 29.8564 19.6269 29.7591 19.0971H20.0569V22.7102H25.8905C25.6521 24.2448 24.1241 27.2413 20.0569 27.2413C16.5528 27.2413 13.6915 24.2729 13.6915 20.6023C13.6915 16.9317 16.5515 13.9619 20.0569 13.9619C22.0617 13.9619 23.3937 14.8365 24.1515 15.5821L26.9416 12.8435C25.1451 11.1239 22.8319 10.0909 20.0555 10.0909C14.3767 10.0909 9.77774 14.7944 9.77774 20.6023C9.77774 26.4102 14.3767 31.1137 20.0555 31.1137Z" fill="#7B65E8"/>
</svg>
