<svg width="41" height="41" viewBox="0 0 41 41" fill="none" xmlns="http://www.w3.org/2000/svg">
<circle cx="20.1111" cy="20.4047" r="20" fill="white"/>
<path d="M28.5162 23.1529C28.0797 22.5579 28.2046 22.2932 28.5162 21.7614C28.5219 21.7553 32.1254 16.3809 32.4966 14.5582L32.4989 14.557C32.6834 13.8928 32.4989 13.4047 31.6067 13.4047H28.6546C27.9031 13.4047 27.5566 13.8236 27.3709 14.2923C27.3709 14.2923 25.8679 18.1756 23.7416 20.6928C23.0553 21.4202 22.738 21.6533 22.3634 21.6533C22.1789 21.6533 21.892 21.4202 21.892 20.7559V14.557C21.892 13.7604 21.6816 13.4047 21.0595 13.4047H16.4176C15.9462 13.4047 15.666 13.7762 15.666 14.1223C15.666 14.8776 16.7292 15.0512 16.8395 17.1762V21.7869C16.8395 22.7972 16.6696 22.9829 16.2927 22.9829C15.2892 22.9829 12.8534 19.0839 11.41 14.6214C11.1186 13.7556 10.834 13.4059 10.0768 13.4059H7.12362C6.28096 13.4059 6.11108 13.8248 6.11108 14.2935C6.11108 15.1217 7.11462 19.2393 10.7777 24.6793C13.2191 28.3926 16.6572 30.4047 19.7848 30.4047C21.6647 30.4047 21.8943 29.9578 21.8943 29.1892C21.8943 25.641 21.7244 25.3059 22.666 25.3059C23.1025 25.3059 23.8541 25.539 25.6091 27.3301C27.6151 29.4539 27.9447 30.4047 29.0675 30.4047H32.0196C32.8611 30.4047 33.2875 29.9578 33.0423 29.0762C32.4809 27.222 28.6872 23.4079 28.5162 23.1529Z" fill="#7B65E8"/>
</svg>
