<svg width="26" height="26" viewBox="0 0 26 26" fill="none" xmlns="http://www.w3.org/2000/svg">
<path d="M9.20832 0H3.79169C2.89575 0 2.16669 0.729066 2.16669 1.625V24.375C2.16669 25.2709 2.89575 26 3.79169 26H9.20837C10.1043 26 10.8334 25.2709 10.8334 24.375V1.625C10.8333 0.729066 10.1043 0 9.20832 0Z" fill="white"/>
<path d="M22.2083 0H16.7917C15.8958 0 15.1667 0.729066 15.1667 1.625V24.375C15.1667 25.2709 15.8958 26 16.7917 26H22.2084C23.1043 26 23.8334 25.2709 23.8334 24.375V1.625C23.8333 0.729066 23.1043 0 22.2083 0Z" fill="white"/>
</svg>
