<svg width="29" height="29" viewBox="0 0 29 29" fill="none" xmlns="http://www.w3.org/2000/svg">
<g clip-path="url(#clip0)">
<path d="M23.2846 8.63264L25.021 6.89626L23.3124 5.18707L21.4549 7.04458C19.758 5.84204 17.7779 5.1009 15.7084 4.89375V2.41667H18.1251V0H10.8751V2.41667H13.2917V4.89375C11.2223 5.1009 9.24209 5.84204 7.54519 7.04458L5.68768 5.18707L3.9791 6.89626L5.71547 8.63264C4.09467 10.3487 3.012 12.5019 2.60115 14.8264C2.19031 17.1509 2.46929 19.5448 3.40364 21.7125C4.338 23.8801 5.8868 25.7267 7.85878 27.0241C9.83077 28.3215 12.1396 29.0128 14.5001 29.0128C16.8605 29.0128 19.1693 28.3215 21.1413 27.0241C23.1133 25.7267 24.6621 23.8801 25.5965 21.7125C26.5308 19.5448 26.8098 17.1509 26.399 14.8264C25.9881 12.5019 24.9054 10.3487 23.2846 8.63264ZM14.5001 26.5833C12.5882 26.5833 10.7192 26.0164 9.12954 24.9542C7.53987 23.892 6.30087 22.3823 5.56922 20.6159C4.83757 18.8496 4.64614 16.9059 5.01913 15.0308C5.39212 13.1556 6.31278 11.4332 7.66469 10.0813C9.0166 8.72939 10.739 7.80873 12.6142 7.43574C14.4893 7.06275 16.433 7.25419 18.1993 7.98583C19.9657 8.71748 21.4754 9.95648 22.5376 11.5462C23.5998 13.1358 24.1667 15.0048 24.1667 16.9167C24.1638 19.4795 23.1445 21.9366 21.3322 23.7489C19.52 25.5611 17.0629 26.5805 14.5001 26.5833Z" fill="white"/>
<path d="M14.5001 9.66675V16.9167H7.25009C7.25009 18.3507 7.6753 19.7524 8.47194 20.9446C9.26858 22.1369 10.4009 23.0661 11.7256 23.6149C13.0504 24.1636 14.5081 24.3072 15.9145 24.0274C17.3209 23.7477 18.6127 23.0572 19.6266 22.0433C20.6405 21.0293 21.331 19.7375 21.6108 18.3312C21.8905 16.9248 21.747 15.4671 21.1982 14.1423C20.6495 12.8175 19.7202 11.6852 18.528 10.8886C17.3357 10.092 15.934 9.66675 14.5001 9.66675Z" fill="white"/>
</g>
<defs>
<clipPath id="clip0">
<rect width="29" height="29" fill="white"/>
</clipPath>
</defs>
</svg>
